Coordinates
version=1
nRows=19
nColumns=36
inDegrees=yes

Units are S.I. units (second, meters, Newtons, ...)
If the header above contains a line with 'inDegrees', this indicates whether rotational values are in degrees (yes) or radians (no).

endheader
time	pelvis_tilt	pelvis_list	pelvis_rotation	pelvis_tx	pelvis_ty	pelvis_tz	hip_flexion_r	hip_adduction_r	hip_rotation_r	knee_angle_r	knee_angle_r_beta	ankle_angle_r	subtalar_angle_r	mtp_angle_r	hip_flexion_l	hip_adduction_l	hip_rotation_l	knee_angle_l	knee_angle_l_beta	ankle_angle_l	subtalar_angle_l	mtp_angle_l	lumbar_extension	lumbar_bending	lumbar_rotation	arm_flex_r	arm_add_r	arm_rot_r	elbow_flex_r	pro_sup_r	arm_flex_l	arm_add_l	arm_rot_l	elbow_flex_l	pro_sup_l
      8.13333330	    -17.41893083	      3.36535163	     -8.45499426	      1.09130618	      0.76111912	      0.13975488	     59.43862120	     -0.13671130	     -9.50826206	     74.43439337	      1.29912524	     37.50833227	     15.26030034	     -7.49999987	     78.30311654	    -17.25401329	      2.74906558	     44.48236506	      0.77636373	      3.50699750	     -1.16618799	     -7.49999987	    -22.02114363	     16.56693108	      9.01527057	     57.49042696	     -8.71628120	     73.65243805	    120.78719536	     96.95420604	     56.68698738	      5.24156753	     56.00143443	    109.33333659	    111.25426509
      8.15000000	    -17.78974874	      3.20974124	     -8.41318376	      1.09108555	      0.75709894	      0.14019878	     60.07728002	     -0.06082880	     -9.69797776	     74.84504043	      1.30629238	     37.72520377	     15.51353643	     -7.49999987	     79.14780339	    -17.32104371	      3.06856094	     44.93080813	      0.78419054	      3.53057464	     -0.86513736	     -7.49999987	    -22.19849773	     16.74585021	      8.95942982	     57.66995878	     -8.67404738	     71.11773360	    120.61714057	     97.41777776	     57.55905260	      5.07914226	     56.62255127	    109.12570137	    111.11495322
      8.16666670	    -18.22920599	      2.98923058	     -8.41931494	      1.09059106	      0.74927993	      0.13960860	     61.05705259	      0.08095206	     -9.91447441	     75.64935301	      1.32033029	     38.09171051	     15.85567237	     -7.49999987	     80.40233054	    -17.46103968	      3.58540639	     45.78188906	      0.79904470	      3.64081104	     -0.63430921	     -7.49999987	    -21.87889122	     17.04864644	      8.69581022	     57.60829009	     -8.38804285	     69.65462211	    120.82362638	     96.57145823	     57.89410986	      4.86733059	     56.60703069	    110.30551513	    109.68675670
      8.18333330	    -18.74533319	      2.85750984	     -8.25242815	      1.09076074	      0.74865412	      0.13968474	     61.95661033	      0.19678984	     -9.95702114	     76.24204769	      1.33067476	     38.21900525	     15.71561862	     -7.49999987	     81.43970847	    -17.37104908	      4.15353164	     46.30849165	      0.80823565	      3.60210380	     -0.73698823	     -7.49999987	    -21.76743921	     17.31971572	      8.46750909	     57.26504131	     -8.72480976	     69.36977865	    120.37598494	     97.08338032	     57.90225240	      4.45102476	     56.84394487	    110.77052302	    110.64777227
      8.20000000	    -19.15794649	      2.65384845	     -8.20021114	      1.08957677	      0.74135899	      0.14003237	     62.76837605	      0.48237607	    -10.01047261	     76.95758492	      1.34316324	     38.74867600	     15.76631812	     -7.49999987	     82.54998265	    -17.43882441	      4.64737035	     47.05523229	      0.82126873	      3.73608386	     -0.58580806	     -7.49999987	    -21.54761390	     17.41503761	      8.18017049	     57.14952473	     -8.72731391	     68.13880197	    120.08634568	     95.70311323	     58.58626211	      4.30313880	     57.07366794	    111.99573792	    108.80509183
      8.21666670	    -19.56939403	      2.48370919	     -8.16939268	      1.08973178	      0.74105890	      0.14006135	     63.41428900	      0.71981996	    -10.07469597	     77.43321586	      1.35146457	     38.97619988	     15.70466254	     -7.49999987	     83.46827176	    -17.46887608	      5.07723716	     47.44650746	      0.82809777	      3.78181209	     -0.44209817	     -7.49999987	    -21.54582214	     17.67075433	      7.92300400	     57.14513755	     -8.32686907	     68.59805444	    119.69703826	     97.66917384	     58.42812337	      4.09782573	     56.87874509	    112.83531567	    110.50503301
      8.23333330	    -19.79469426	      2.12991851	     -8.12844697	      1.09392080	      0.73807523	      0.14417445	     63.59459930	      1.12367871	    -10.29237706	     77.66836938	      1.35556877	     39.48957247	     15.79274274	     -7.49999987	     84.15735613	    -17.67083027	      5.61461343	     47.77580914	      0.83384517	      3.84759194	     -0.19868200	     -7.49999987	    -21.68048922	     17.84820978	      7.73398041	     56.40521286	     -8.10197283	     67.98018817	    119.46464569	     97.79070968	     57.99819128	      3.93801731	     56.85672419	    113.10186717	    110.42979975
      8.25000000	    -20.27168048	      1.79247271	     -8.06695968	      1.09355602	      0.73102010	      0.14385246	     64.45272042	      1.55397021	    -10.45290162	     78.38668005	      1.36810566	     39.91652684	     15.58549985	     -7.49999987	     85.42922158	    -17.84520294	      6.22965334	     48.49718587	      0.84643557	      4.10995672	      0.19383194	     -7.49999987	    -21.57582356	     18.05480031	      7.65107078	     56.36038225	     -7.77387673	     67.96678647	    119.67957646	     97.24153447	     57.54448547	      3.93796858	     56.69628968	    113.90295838	    110.91432751
      8.26666670	    -20.56415559	      1.34389618	     -7.93579232	      1.09791709	      0.73112977	      0.14748738	     64.72266582	      1.98737384	    -10.77514418	     78.71513425	      1.37383826	     40.31339691	     15.45813485	     -7.49999987	     86.26329631	    -17.99246181	      6.86638539	     48.87579339	      0.85304352	      4.22553631	      0.28140358	     -7.49999987	    -21.80127211	     18.37788542	      7.56614227	     56.01398149	     -7.29122958	     67.95992902	    119.52352659	     97.78785322	     56.64414821	      3.64585370	     56.24048244	    113.54178976	    110.61973309
      8.28333330	    -20.73051541	      0.94176971	     -7.90999496	      1.09269680	      0.72480762	      0.15072130	     65.17442477	      2.43377597	    -11.10247106	     79.28693072	      1.38381799	     40.65578811	     15.44325670	     -7.49999987	     87.18611952	    -18.26796376	      7.44234887	     49.38100626	      0.86186115	      4.25031697	      0.36766568	     -7.49999987	    -22.05557713	     18.44651776	      7.88349511	     56.57358702	     -7.04705244	     68.14987048	    119.20783588	     97.96972915	     56.78510947	      3.39672683	     56.40861782	    112.89612666	    110.48893051
      8.30000000	    -21.13965159	      0.61352703	     -7.98523898	      1.09227425	      0.72374853	      0.15021882	     65.94761032	      2.79297195	    -11.45382435	     79.92226348	      1.39490664	     40.77692308	     15.34914510	     -7.49999987	     88.30941820	    -18.41161138	      8.00446833	     49.72737828	      0.86790648	      4.29881503	      0.61638712	     -7.49999987	    -22.31180300	     18.72428229	      8.66527786	     57.45437510	     -8.05715247	     69.32839924	    118.16343454	     97.05722036	     56.78084094	      3.58678165	     56.73179055	    111.00420697	    110.02968490
      8.31666670	    -21.58510893	      0.31429625	     -8.09941255	      1.09232582	      0.71692765	      0.15008999	     66.76423722	      3.00664635	    -11.93816415	     80.60533710	      1.40682853	     41.02828377	     15.71763180	     -7.49999987	     89.50458322	    -18.53496252	      8.44005421	     50.03299835	      0.87324056	      4.38141370	      1.00092115	     -7.49999987	    -22.24935783	     18.98022217	      9.13541119	     58.60740185	     -8.57476933	     70.43759434	    118.03993909	     97.30748377	     57.84788772	      4.10721144	     56.28927378	    110.01673981	    109.95508937
      8.33333330	    -22.13903112	     -0.02388498	     -8.16742682	      1.09718989	      0.71350439	      0.15343134	     67.43037957	      3.37541749	    -12.37889027	     81.11381634	      1.41570316	     41.36445347	     15.77872028	     -7.49999987	     90.67004291	    -18.61021298	      9.02248177	     50.26920186	      0.87736308	      4.59635016	      1.52380224	     -7.49999987	    -21.78202507	     19.25898529	      9.40836271	     58.26801611	     -8.21312151	     71.02763816	    118.12788997	     97.33837986	     57.96281180	      4.35968815	     56.33130967	    109.97434111	    109.80155891
      8.35000000	    -22.71322729	     -0.33261898	     -8.31458539	      1.09752725	      0.70906782	      0.15286384	     68.18692576	      3.66708727	    -12.81367153	     81.72561536	      1.42638107	     41.71170182	     15.87126665	     -7.49999987	     91.90501462	    -18.75037326	      9.45616554	     50.57112862	      0.88263270	      4.88656406	      2.25651424	     -7.49999987	    -21.52109204	     19.43528543	      9.82804744	     58.43576694	     -8.94238901	     71.45593588	    118.15466829	     95.97423886	     57.85666049	      4.76198744	     55.90607386	    109.85027378	    109.33194590
      8.36666670	    -23.32142143	     -0.65929073	     -8.43516761	      1.09699094	      0.70414498	      0.15272997	     69.04227903	      3.95094068	    -13.26518962	     82.40699395	      1.43827337	     42.10654586	     15.88877922	     -7.49999987	     93.24113861	    -18.89841633	      9.90410520	     51.04948594	      0.89098161	      5.12634217	      3.05390162	     -7.49999987	    -21.36662917	     19.52592617	     10.17200035	     59.11921535	     -9.41861218	     72.11605669	    119.22352720	     95.34072504	     57.84735311	      5.11480442	     55.90500665	    110.57647977	    109.78381168
      8.38333330	    -23.76279398	     -0.98770607	     -8.54344921	      1.09710460	      0.69985305	      0.15227480	     69.75777054	      4.10105065	    -13.79475617	     83.02058427	      1.44898254	     42.39620231	     16.01811696	     -7.49999987	     94.41802764	    -19.05230717	     10.27371781	     51.35492986	      0.89631261	      5.13672237	      3.66656804	     -7.49999987	    -21.41231159	     19.65129561	     10.64269284	     60.13049168	    -10.04988207	     72.99312663	    119.04418049	     95.96609285	     57.98463871	      5.29425367	     55.55662980	    110.38075171	    109.46548239
      8.40000000	    -24.35902175	     -1.29543227	     -8.66878187	      1.09682033	      0.69119422	      0.15169160	     70.72305373	      4.21915308	    -14.27455431	     83.80948136	      1.46275139	     42.73947539	     16.21118291	     -7.49999987	     95.85153043	    -19.16412724	     10.84449617	     51.95766919	      0.90683240	      5.44025401	      4.20324511	     -7.49999987	    -21.26873399	     19.91239766	     11.20169453	     61.72558168	    -10.04376791	     74.55400414	    119.57320052	     96.24910407	     59.16199577	      5.97709390	     55.29909438	    110.38741342	    109.28673420
      8.41666670	    -24.92677395	     -1.43883087	     -8.75066101	      1.09192004	      0.68971763	      0.14776118	     71.67966848	      4.07125663	    -14.57744869	     84.50798930	      1.47494266	     42.85208912	     16.36710563	     -7.49999987	     97.02256532	    -19.06593296	     11.28214233	     52.25595032	      0.91203839	      5.37301899	      4.46153726	     -7.49999987	    -21.78814919	     20.14128889	     11.72586487	     63.53825533	    -10.26459566	     75.34989431	    118.86571027	     96.32425894	     60.58171185	      5.46627827	     54.76626633	    107.84181387	    109.21534922
      8.43333330	    -25.41200521	     -1.67698136	     -8.95460597	      1.09122822	      0.67883870	      0.14779731	     72.70045809	      3.99431640	    -15.03944837	     85.34005059	      1.48946487	     43.06343440	     16.66558862	     -7.49999987	     98.40135559	    -19.14177797	     11.99247412	     52.83589970	      0.92216041	      5.39079583	      4.77638560	     -7.49999987	    -21.68904967	     20.25928624	     12.42354829	     64.54691248	    -10.06896587	     75.58490107	    118.90871550	     95.41704562	     61.61226925	      5.30484854	     54.52501233	    106.53681915	    108.34919006
